<svg width="1200" height="420" viewBox="0 0 1200 420" fill="none" xmlns="http://www.w3.org/2000/svg">
  <rect width="1200" height="420" rx="34" fill="#0B1020"/>
  <rect x="34" y="34" width="1132" height="352" rx="28" fill="#111827" stroke="#2ECC71" stroke-width="2"/>
  <circle cx="92" cy="92" r="12" fill="#EF4444"/>
  <circle cx="130" cy="92" r="12" fill="#F59E0B"/>
  <circle cx="168" cy="92" r="12" fill="#22C55E"/>
  <text x="80" y="175" fill="#FFFFFF" font-family="Arial, Helvetica, sans-serif" font-size="48" font-weight="700">UKG Pro WFM MCP Server</text>
  <text x="82" y="225" fill="#A7F3D0" font-family="Arial, Helvetica, sans-serif" font-size="24">Reasoning • Hydration • Execution • Governance</text>
  <rect x="80" y="265" width="260" height="58" rx="14" fill="#2ECC71"/>
  <text x="110" y="302" fill="#07111F" font-family="Arial, Helvetica, sans-serif" font-size="22" font-weight="700">Natural Language</text>
  <path d="M360 294H430" stroke="#94A3B8" stroke-width="4" stroke-linecap="round"/>
  <path d="M420 282L435 294L420 306" stroke="#94A3B8" stroke-width="4" stroke-linecap="round" stroke-linejoin="round"/>
  <rect x="455" y="265" width="210" height="58" rx="14" fill="#1F2937" stroke="#38BDF8"/>
  <text x="491" y="302" fill="#E0F2FE" font-family="Arial, Helvetica, sans-serif" font-size="22" font-weight="700">Resolve</text>
  <path d="M690 294H760" stroke="#94A3B8" stroke-width="4" stroke-linecap="round"/>
  <path d="M750 282L765 294L750 306" stroke="#94A3B8" stroke-width="4" stroke-linecap="round" stroke-linejoin="round"/>
  <rect x="790" y="265" width="250" height="58" rx="14" fill="#1F2937" stroke="#2ECC71"/>
  <text x="835" y="302" fill="#DCFCE7" font-family="Arial, Helvetica, sans-serif" font-size="22" font-weight="700">Hydrate & Answer</text>
</svg>
